<svg xmlns="http://www.w3.org/2000/svg" viewBox="0 0 120 120">
  <defs>
    <linearGradient id="wg" x1="0%" y1="0%" x2="100%" y2="100%">
      <stop offset="0%" style="stop-color:#1a1a2e"/>
      <stop offset="100%" style="stop-color:#2d2d44"/>
    </linearGradient>
  </defs>
  <rect width="120" height="120" rx="26" fill="url(#wg)"/>
  <g transform="translate(18,30)">
    <rect x="0" y="0" width="16" height="16" rx="2" fill="#538d4e"/>
    <rect x="18" y="0" width="16" height="16" rx="2" fill="#3a3a3c"/>
    <rect x="36" y="0" width="16" height="16" rx="2" fill="#b59f3b"/>
    <rect x="54" y="0" width="16" height="16" rx="2" fill="#538d4e"/>
    <rect x="72" y="0" width="16" height="16" rx="2" fill="#3a3a3c"/>
    <rect x="0" y="20" width="16" height="16" rx="2" fill="#3a3a3c"/>
    <rect x="18" y="20" width="16" height="16" rx="2" fill="#538d4e"/>
    <rect x="36" y="20" width="16" height="16" rx="2" fill="#538d4e"/>
    <rect x="54" y="20" width="16" height="16" rx="2" fill="#3a3a3c"/>
    <rect x="72" y="20" width="16" height="16" rx="2" fill="#b59f3b"/>
    <rect x="0" y="40" width="16" height="16" rx="2" fill="#538d4e"/>
    <rect x="18" y="40" width="16" height="16" rx="2" fill="#538d4e"/>
    <rect x="36" y="40" width="16" height="16" rx="2" fill="#538d4e"/>
    <rect x="54" y="40" width="16" height="16" rx="2" fill="#538d4e"/>
    <rect x="72" y="40" width="16" height="16" rx="2" fill="#538d4e"/>
  </g>
  <text x="8" y="45" font-family="system-ui" font-size="11" font-weight="700" fill="white">W</text>
  <text x="62" y="45" font-family="system-ui" font-size="11" font-weight="700" fill="white">D</text>
  <text x="8" y="65" font-family="system-ui" font-size="11" font-weight="700" fill="white">O</text>
  <text x="26" y="65" font-family="system-ui" font-size="11" font-weight="700" fill="white">R</text>
</svg>
